<?xml version="1.0" encoding="utf-8"?>
<svg xmlns="http://www.w3.org/2000/svg">
  <symbol id="logo-small" viewBox="0 0 21 16" xmlns="http://www.w3.org/2000/svg">
    <path
      fill-rule="evenodd"
      clip-rule="evenodd"
      d="M4.44307 16C3.25825 15.352 0.710891 13.6374 0 11.9626C1.77723 11.9626 5.47978 11.4542 6.07219 9.42056C5.03548 9.07165 2.87318 8.13458 2.51774 7.17757C3.94939 6.77882 6.96081 5.68225 7.55322 4.48598C7.62727 4.33645 7.55322 4.33645 7.55322 4.33645L5.18358 2.99065C5.97346 2.79128 7.87904 1.91402 9.18234 0L13.4773 7.47663L17.1799 0.149533H19.8457L20.7343 14.6542H16.8837V5.68224L12.8849 12.4112L9.03424 8.2243C8.54056 10.5171 6.93119 15.2822 4.44307 16ZM9.77475 4.23295C9.62665 4.78504 9.47854 6.37165 9.47854 6.37165L12.1444 9.57009L12.7368 8.82242C12.7368 8.82242 9.92285 3.68086 9.77475 4.23295Z"
    />
  </symbol>
  <symbol id="back" viewBox="0 0 20 14" xmlns="http://www.w3.org/2000/svg">
    <path
      d="M0.646447 3.64645C0.451184 3.84171 0.451184 4.15829 0.646447 4.35355L3.82843 7.53553C4.02369 7.7308 4.34027 7.7308 4.53553 7.53553C4.7308 7.34027 4.7308 7.02369 4.53553 6.82843L1.70711 4L4.53553 1.17157C4.7308 0.976311 4.7308 0.659728 4.53553 0.464466C4.34027 0.269204 4.02369 0.269204 3.82843 0.464466L0.646447 3.64645ZM6.5 14H14.25V13H6.5V14ZM14.25 3.5H1V4.5H14.25V3.5ZM19.5 8.75C19.5 5.85051 17.1495 3.5 14.25 3.5V4.5C16.5972 4.5 18.5 6.40279 18.5 8.75H19.5ZM14.25 14C17.1495 14 19.5 11.6495 19.5 8.75H18.5C18.5 11.0972 16.5972 13 14.25 13V14Z"
    />
  </symbol>
  <symbol id="partOfTree" viewBox="0 0 25 25" xmlns="http://www.w3.org/2000/svg">
    <path
      fill-rule="evenodd"
      clip-rule="evenodd"
      d="M21.0858 18.9658C17.5163 21.4302 14.6626 21.9043 12.3331 20.9646C9.94729 20.0021 8.29051 17.6189 7.01186 14.9332C6.01787 12.8453 5.21474 10.4882 4.47746 8.32431C4.2625 7.69342 4.05314 7.07896 3.84628 6.49239C3.38396 5.18145 2.93543 4.0118 2.46265 3.07847C1.98312 2.13182 1.51215 1.49812 1.03808 1.18506L0 0.499536L1.22375 0.275966C3.60375 -0.158842 6.62907 -0.0739958 9.67664 0.489173C12.7264 1.05274 15.8352 2.10206 18.3776 3.62541C20.9144 5.14546 22.9386 7.16989 23.7161 9.70358C24.4804 12.194 24.008 15.0677 21.8428 18.2642C23.0935 20.5523 23.9408 22.6352 24.3957 24.1113L23.4401 24.4059C23.0196 23.0415 22.2383 21.1074 21.0858 18.9658ZM3.35472 2.62658C3.06651 2.05762 2.75461 1.53904 2.40692 1.1135C4.46945 0.883123 6.95827 1.00377 9.49492 1.47252C12.4564 2.01978 15.4463 3.03477 17.8636 4.48321C20.2864 5.93496 22.0828 7.78983 22.7601 9.99695C23.3828 12.0261 23.0886 14.4503 21.2895 17.2848C20.8074 16.4588 20.2747 15.6142 19.6911 14.7688C17.2223 11.193 13.8196 7.57191 9.43386 5.28845L8.97204 6.17543C13.1671 8.35964 16.4571 11.8448 18.8681 15.337C19.5079 16.2637 20.0844 17.1887 20.5982 18.0871C17.1307 20.5046 14.6124 20.8057 12.7072 20.0372C10.6913 19.224 9.17354 17.1473 7.91475 14.5033C6.94834 12.4734 6.17135 10.1936 5.43686 8.03853C5.21856 7.39801 5.004 6.76846 4.78935 6.15981C4.32506 4.84328 3.85876 3.62161 3.35472 2.62658Z"
      fill="#B2B6B5"
    />
  </symbol>
  <symbol id="partOfWater" viewBox="0 0 18 24" xmlns="http://www.w3.org/2000/svg">
    <path
      d="M15.644 10.2198L9.33884 0.371439C9.26593 0.257553 9.16553 0.163841 9.04691 0.0989309C8.92828 0.0340211 8.79522 0 8.66 0C8.52477 0 8.39172 0.0340211 8.27309 0.0989309C8.15446 0.163841 8.05407 0.257553 7.98115 0.371439L1.6758 10.2199C0.582675 11.7028 -0.00481298 13.4978 2.96999e-05 15.34C2.96999e-05 20.1151 3.88482 24 8.66 24C13.4352 24 17.32 20.1152 17.32 15.34C17.3248 13.4977 16.7373 11.7027 15.644 10.2198ZM8.66 22.3879C4.77384 22.3879 1.61212 19.2263 1.61212 15.34C1.608 13.8334 2.09077 12.3657 2.9885 11.1557C2.99921 11.1412 3.00942 11.1264 3.01913 11.1112L8.66 2.30096L14.3007 11.1113C14.3103 11.1265 14.3205 11.1413 14.3313 11.1558C15.2291 12.3657 15.7119 13.8334 15.7079 15.34C15.7079 19.2262 12.5462 22.3879 8.66 22.3879Z"
    />
  </symbol>
  <symbol id="throwing" viewBox="0 0 24 24" xmlns="http://www.w3.org/2000/svg">
    <path
      d="M23.4767 11.5H12.5233C12.7828 8.73004 15.1718 6.5 18 6.5C20.8282 6.5 23.2172 8.73004 23.4767 11.5ZM12.5 12.5233C15.27 12.7828 17.5 15.1718 17.5 18C17.5 20.8282 15.27 23.2172 12.5 23.4767V12.5233ZM0.523346 12.5H11.4767C11.2172 15.27 8.82824 17.5 6 17.5C3.17176 17.5 0.78283 15.27 0.523346 12.5ZM11.5 0.523346V11.4767C8.73004 11.2172 6.5 8.82824 6.5 6C6.5 3.17176 8.73004 0.78283 11.5 0.523346Z"
      stroke="#E5E5E5"
      fill="none"
    />
  </symbol>
  <symbol id="cloud" viewBox="0 0 25 24" xmlns="http://www.w3.org/2000/svg">
    <path
      d="M12.4047 0C8.99627 0 6.02565 1.95196 4.60716 5.03217C1.96746 5.92448 0 8.4554 0 11.2143C0 14.7725 2.89409 17.6666 6.45237 17.6666H6.95237V14.2857H6.45237C4.75947 14.2857 3.38095 12.9072 3.38095 11.2143C3.38095 9.80979 4.61057 8.38787 6.14962 8.11744L7.13198 7.94329L7.45621 6.99932C8.2265 4.75308 10.1206 3.38095 12.4047 3.38095C15.4107 3.38095 17.8571 5.82732 17.8571 8.83332V10.5238H19.5476C20.5845 10.5238 21.4285 11.3678 21.4285 12.4047C21.4285 13.4417 20.5845 14.2857 19.5476 14.2857H17.8571V17.6666H19.5476C22.4499 17.6666 24.8095 15.3071 24.8095 12.4047C24.8079 11.2257 24.4111 10.0805 23.6825 9.1535C23.0244 8.31622 22.1299 7.70006 21.119 7.38228C20.4255 3.19926 16.7832 0 12.4047 0ZM20.1754 7.83915L20.6714 7.77618L20.5526 8.26187C21.4807 8.4888 22.3059 9.02032 22.8963 9.77146C23.4867 10.5226 23.8082 11.45 23.8095 12.4054C23.8091 14.7551 21.8974 16.6666 19.5476 16.6666H18.8571V15.2857H19.5476C21.1368 15.2857 22.4285 13.994 22.4285 12.4047C22.4285 10.8155 21.1368 9.52379 19.5476 9.52379H18.8571V8.83332C18.8571 5.27504 15.963 2.38095 12.4047 2.38095C9.67699 2.38095 7.41387 4.03999 6.51036 6.6747L6.37752 7.06145L5.97655 7.13253C4.00624 7.47893 2.38095 9.2784 2.38095 11.2143C2.38095 13.2902 3.94223 15.008 5.95237 15.2552V16.6439C3.17974 16.3906 1 14.0517 1 11.2143C1 8.85719 2.75227 6.62594 5.11579 5.91953L5.33953 5.85266L5.43187 5.63817C6.65602 2.79451 9.32836 1 12.4047 1C16.3876 1 19.6864 3.98795 20.1754 7.83915Z"
    />
    <path
      d="M9.61389 10.7143L8.22342 17.6666H10.7143V23.5886L16.8774 14.2857H14.2889L15.4794 10.7143H9.61389ZM9.44322 16.6666L10.4337 11.7143H14.092L12.9015 15.2857H15.0154L11.7143 20.2685V16.6666H9.44322Z"
    />
  </symbol>
  <symbol id="egg" viewBox="0 0 18 24" xmlns="http://www.w3.org/2000/svg">
    <path
      d="M14.8025 10.7832L16.6381 11.701C16.585 11.4202 16.5262 11.1357 16.4617 10.8475C16.2517 9.91023 15.9772 8.95038 15.637 7.96774C15.3042 7.00613 14.8985 6.09949 14.4206 5.24664C13.9416 4.39181 13.42 3.63854 12.8579 2.98282C12.327 2.36341 11.7217 1.87752 11.0399 1.5166C10.3826 1.16863 9.70681 1 9 1C8.23721 1 7.49714 1.20383 6.7655 1.63498C6.00458 2.08338 5.34725 2.66786 4.79066 3.39623C4.20398 4.164 3.65977 5.05849 3.1613 6.08519C2.66096 7.11575 2.25965 8.14971 1.95579 9.1873C1.70918 10.0294 1.50869 10.8649 1.35394 11.694L4.37334 13.7125L7.37258 10.7132L11.8726 13.7132L14.8025 10.7832ZM12 15L7.5 12L4.5 15L0.257812 12.1641C0.429688 11.0859 0.675781 10 0.996094 8.90625C1.31641 7.8125 1.73828 6.72656 2.26172 5.64844C2.78516 4.57031 3.36328 3.61719 3.99609 2.78906C4.62891 1.96094 5.38281 1.28906 6.25781 0.773438C7.13281 0.257812 8.04688 0 9 0C9.875 0 10.7109 0.210938 11.5078 0.632812C12.3047 1.05469 13.0078 1.62109 13.6172 2.33203C14.2266 3.04297 14.7852 3.85156 15.293 4.75781C15.8008 5.66406 16.2305 6.625 16.582 7.64062C16.9336 8.65625 17.2188 9.65234 17.4375 10.6289C17.5616 11.1828 17.6655 11.7254 17.7494 12.2567C17.8134 12.6621 17.8657 13.0609 17.9062 13.4531L15 12L12 15ZM0.00399935 14.7045C0.0125126 14.373 0.0346169 13.9871 0.0703125 13.5469L4.5 16.5L7.5 13.5L12 16.5L15 13.5L18 15C18 16.625 17.5977 18.1289 16.793 19.5117C15.9883 20.8945 14.8945 21.9883 13.5117 22.793C12.1289 23.5977 10.625 24 9 24C7.375 24 5.87109 23.5977 4.48828 22.793C3.10547 21.9883 2.01172 20.8945 1.20703 19.5117C0.402344 18.1289 0 16.625 0 15C0 14.9068 0.00133312 14.8083 0.00399935 14.7045ZM1.00801 15.3739C1.06443 16.6805 1.41877 17.8873 2.07134 19.0088C2.78891 20.2419 3.75814 21.2111 4.99124 21.9287C6.21884 22.643 7.54879 23 9 23C10.4512 23 11.7812 22.643 13.0088 21.9287C14.2419 21.2111 15.2111 20.2419 15.9287 19.0088C16.5422 17.9545 16.8921 16.8246 16.9787 15.6074L15.1975 14.7168L12.1274 17.7868L7.62742 14.7868L4.62742 17.7868L1.00801 15.3739Z"
    />
  </symbol>
  <symbol id="shield" viewBox="0 0 22 24" xmlns="http://www.w3.org/2000/svg">
    <path
      d="M6.66669 2.3856C5.20346 2.77896 3.74972 3.20682 2.30669 3.6688C2.1761 3.70911 2.05953 3.78545 1.97037 3.88903C1.88122 3.99262 1.8231 4.11926 1.80269 4.2544C0.949887 10.4896 2.91789 15.04 5.26509 18.0368C6.44269 19.5408 7.71789 20.6544 8.78029 21.3856C9.31309 21.7504 9.78189 22.016 10.1515 22.1856C10.3371 22.2704 10.4875 22.328 10.6027 22.3616C10.6535 22.3779 10.7053 22.3908 10.7579 22.4C10.7691 22.3984 10.8187 22.392 10.9131 22.3632C11.0283 22.328 11.1787 22.2704 11.3643 22.1856C11.7323 22.016 12.2043 21.7504 12.7355 21.3856C14.0677 20.4509 15.2525 19.3221 16.2507 18.0368C18.5979 15.04 20.5659 10.4896 19.7131 4.2544C19.6927 4.11926 19.6346 3.99262 19.5454 3.88903C19.4562 3.78545 19.3397 3.70911 19.2091 3.6688C18.2075 3.3488 16.5179 2.8272 14.8491 2.3856C13.1435 1.936 11.5739 1.6 10.7579 1.6C9.94189 1.6 8.37389 1.936 6.66669 2.3856ZM6.25709 0.84C7.92589 0.3984 9.69709 0 10.7579 0C11.8171 0 13.5899 0.3984 15.2587 0.84C16.7472 1.23964 18.226 1.67443 19.6939 2.144C20.5387 2.4128 21.1755 3.1408 21.2987 4.0384C22.2155 10.7536 20.0891 15.7296 17.5115 19.0224C16.4131 20.4355 15.109 21.676 13.6427 22.7024C13.1328 23.0595 12.5939 23.3732 12.0315 23.64C11.5995 23.8384 11.1387 24 10.7579 24C10.3771 24 9.91629 23.8384 9.48429 23.64C8.92177 23.3734 8.38279 23.0597 7.87309 22.7024C6.40739 21.6758 5.10384 20.4354 4.00589 19.0224C1.42509 15.7296 -0.699713 10.7536 0.217086 4.0384C0.278384 3.60331 0.461642 3.19448 0.745648 2.85922C1.02965 2.52397 1.4028 2.27599 1.82189 2.144C3.2898 1.67444 4.76862 1.23965 6.25709 0.84Z"
    />
    <path
      d="M10.977 3C7.124 3 4 6.446 4 9.115C4 11.781 7.124 11.984 10.977 11.984C14.831 11.984 17.955 11.781 17.955 9.115C17.954 6.446 14.83 3 10.977 3Z"
    />
    <path
      d="M10.897 13.169C9.85 13.169 8.865 13.15 8.005 13.054C8.004 13.141 8 13.226 8 13.313C8 16.455 4.421 19.001 10.945 19.001C17.47 19.001 13.892 16.455 13.892 13.313C13.893 13.221 13.889 13.131 13.888 13.04C13.004 13.147 11.985 13.169 10.897 13.169Z"
    />
  </symbol>
  <symbol id="saw" viewBox="0 0 16 16" xmlns="http://www.w3.org/2000/svg">
    <path
      d="M6.72374 11.4052L3.75838 7.29935L14.4793 0L16 2.28105V4.56209H13.719V6.84314H11.4379V9.12419H9.15686V11.4052H6.72374ZM6.64771 12.6978L6.26753 14.8268L5.05097 15.7392C4.36666 16.1954 3.45424 16.0434 2.922 15.359L0.260775 11.6333C-0.195434 10.949 -0.0433642 10.0366 0.64095 9.50436L3.1501 7.75556L6.64771 12.6978ZM2.76993 9.88454L1.55337 10.7209L4.21459 14.4466L5.43115 13.5342L2.76993 9.88454Z"
    />
  </symbol>
  <symbol id="brush" viewBox="0 0 17 16" xmlns="http://www.w3.org/2000/svg">
    <path
      d="M15.7696 7.37965L14.0588 5.66887L12.8693 4.47931L8.63644 0.246488C8.55844 0.168351 8.46579 0.106361 8.36381 0.0640656C8.26182 0.0217704 8.15249 0 8.04208 0C7.93167 0 7.82235 0.0217704 7.72036 0.0640656C7.61837 0.106361 7.52573 0.168351 7.44772 0.246488L3.11234 4.58103L1.92278 5.76975C1.68806 6.00364 1.50199 6.28171 1.3753 6.58789C1.24861 6.89407 1.18382 7.22232 1.18466 7.55367C1.18466 8.2279 1.44779 8.86177 1.92362 9.33676L2.51798 9.93112L0.734057 11.715C0.499232 11.9462 0.313258 12.2222 0.187183 12.5266C0.0611069 12.831 -0.00249869 13.1577 0.000144099 13.4872C-0.00382586 13.8566 0.0742796 14.2223 0.228821 14.5578C0.383363 14.8933 0.610484 15.1904 0.893787 15.4275C1.33815 15.7995 1.89979 16.0023 2.47931 16C3.18043 16 3.86979 15.7133 4.37084 15.2123L6.08498 13.4981L6.67934 14.0916C7.63183 15.0441 9.29133 15.045 10.2455 14.0925L10.8407 13.4981L11.3191 13.0198L11.4351 12.9038L15.7696 8.56837C15.8477 8.49037 15.9097 8.39772 15.952 8.29574C15.9943 8.19375 16.0161 8.08442 16.0161 7.97401C16.0161 7.8636 15.9943 7.75428 15.952 7.65229C15.9097 7.5503 15.8477 7.45766 15.7696 7.37965ZM9.65199 12.3102L9.05678 12.9038C8.89694 13.0572 8.68398 13.1428 8.46242 13.1428C8.24087 13.1428 8.0279 13.0572 7.86806 12.9038L6.67934 11.7159C6.60134 11.6377 6.50869 11.5758 6.4067 11.5335C6.30472 11.4912 6.19539 11.4694 6.08498 11.4694C5.97457 11.4694 5.86525 11.4912 5.76326 11.5335C5.66127 11.5758 5.56863 11.6377 5.49062 11.7159L3.18212 14.0235C2.996 14.2109 2.74342 14.3173 2.47931 14.3195C2.29711 14.3223 2.11983 14.2604 1.9791 14.1446C1.88291 14.0647 1.80614 13.9641 1.75458 13.8502C1.70302 13.7363 1.67804 13.6122 1.6815 13.4872C1.68043 13.379 1.70125 13.2716 1.74272 13.1717C1.78418 13.0717 1.84543 12.9811 1.92278 12.9054L4.30106 10.5272C4.3792 10.4492 4.44119 10.3565 4.48348 10.2545C4.52578 10.1525 4.54755 10.0432 4.54755 9.9328C4.54755 9.82239 4.52578 9.71306 4.48348 9.61108C4.44119 9.50909 4.3792 9.41644 4.30106 9.33844L3.11234 8.14888C2.95345 7.99083 2.86602 7.78066 2.86602 7.55536C2.86602 7.33005 2.95345 7.11904 3.11234 6.96015L3.7067 6.36579L6.67934 9.33844L9.65199 12.3102Z"
    />
  </symbol>
  <symbol id="opt" viewBox="0 0 25 16" xmlns="http://www.w3.org/2000/svg">
    <path
      fill-rule="evenodd"
      clip-rule="evenodd"
      d="M1.5 0C0.671573 0 0 0.671572 0 1.5V3.23959C0 3.62376 0.144419 3.9742 0.381928 4.23957C0.144419 4.50495 0 4.85538 0 5.23955V6.97914C0 7.36331 0.144419 7.71375 0.381927 7.97912C0.144419 8.2445 0 8.59493 0 8.9791V10.7187C0 11.1029 0.144419 11.4533 0.381928 11.7187C0.144419 11.984 0 12.3345 0 12.7186V14.4582C0 15.2867 0.671574 15.9582 1.5 15.9582H23.5C24.3284 15.9582 25 15.2867 25 14.4582V12.7186C25 12.3345 24.8556 11.9841 24.6181 11.7187C24.8556 11.4533 25 11.1029 25 10.7187V8.9791C25 8.59493 24.8556 8.2445 24.6181 7.97913C24.8556 7.71375 25 7.36331 25 6.97914V5.23955C25 4.85538 24.8556 4.50495 24.6181 4.23958C24.8556 3.9742 25 3.62376 25 3.23959V1.5C25 0.671573 24.3284 0 23.5 0H1.5ZM1.4943 4.73958C1.4962 4.73959 1.4981 4.73959 1.5 4.73959H23.5C23.5019 4.73959 23.5038 4.73959 23.5057 4.73958C23.7792 4.74264 24 4.96531 24 5.23955V6.97914C24 7.25336 23.7792 7.47602 23.5058 7.47911L23.5 7.4791H1.5L1.49424 7.47911C1.22075 7.47602 1 7.25336 1 6.97914V5.23955C1 4.96531 1.22078 4.74264 1.4943 4.73958ZM23.5057 3.73956C23.7792 3.73649 24 3.51382 24 3.23959V1.5C24 1.22386 23.7761 1 23.5 1H1.5C1.22386 1 1 1.22386 1 1.5V3.23959C1 3.51382 1.22077 3.73649 1.49427 3.73956C1.49618 3.73955 1.49809 3.73955 1.5 3.73955H23.5C23.5019 3.73955 23.5038 3.73955 23.5057 3.73956ZM1.5 8.47914L1.4942 8.47913C1.22073 8.48224 1 8.70489 1 8.9791V10.7187C1 10.9929 1.22077 11.2156 1.49427 11.2187L1.5 11.2186H23.5L23.5057 11.2187C23.7792 11.2156 24 10.9929 24 10.7187V8.9791C24 8.70489 23.7793 8.48224 23.5058 8.47913L23.5 8.47914H1.5ZM1.49427 12.2187L1.5 12.2187H23.5L23.5057 12.2187C23.7792 12.2218 24 12.4444 24 12.7186V14.4582C24 14.7344 23.7761 14.9582 23.5 14.9582H1.5C1.22386 14.9582 1 14.7344 1 14.4582V12.7186C1 12.4444 1.22077 12.2218 1.49427 12.2187Z"
    />
  </symbol>
  <symbol id="delivery" viewBox="0 0 19 16" xmlns="http://www.w3.org/2000/svg">
    <path
      d="M16.1393 3.73741C15.9716 3.45932 15.735 3.22913 15.4525 3.06906C15.1699 2.90898 14.8509 2.82442 14.5261 2.82353H12.2353V0.941176C12.2353 0.691561 12.1361 0.452169 11.9596 0.275664C11.7831 0.0991596 11.5437 0 11.2941 0H1.88235C0.844235 0 0 0.844235 0 1.88235V11.2941C0 11.9962 0.391529 12.6033 0.962824 12.9261C1.07859 14.6381 2.49412 16 4.23529 16C5.89082 16 7.25082 14.768 7.48141 13.1765H10.4009C10.6315 14.768 11.9915 16 13.6471 16C15.3026 16 16.6626 14.768 16.8932 13.1765H16.9412C17.9793 13.1765 18.8235 12.3322 18.8235 11.2941V8.47059C18.8237 8.29977 18.7772 8.13215 18.6889 7.98588L16.1393 3.73741ZM12.2353 4.70588H14.5261L16.2202 7.52941H12.2353V4.70588ZM4.23529 14.1176C3.45694 14.1176 2.82353 13.4842 2.82353 12.7059C2.82353 11.9275 3.45694 11.2941 4.23529 11.2941C5.01365 11.2941 5.64706 11.9275 5.64706 12.7059C5.64706 13.4842 5.01365 14.1176 4.23529 14.1176ZM13.6471 14.1176C12.8687 14.1176 12.2353 13.4842 12.2353 12.7059C12.2353 11.9275 12.8687 11.2941 13.6471 11.2941C14.4254 11.2941 15.0588 11.9275 15.0588 12.7059C15.0588 13.4842 14.4254 14.1176 13.6471 14.1176Z"
    />
  </symbol>
  <symbol id="phone" viewBox="0 0 10 16" xmlns="http://www.w3.org/2000/svg">
    <path
      fill-rule="evenodd"
      clip-rule="evenodd"
      d="M0 2C0 1.46957 0.210714 0.960859 0.585786 0.585786C0.960859 0.210714 1.46957 0 2 0L8 0C8.53043 0 9.03914 0.210714 9.41421 0.585786C9.78929 0.960859 10 1.46957 10 2V14C10 14.5304 9.78929 15.0391 9.41421 15.4142C9.03914 15.7893 8.53043 16 8 16H2C1.46957 16 0.960859 15.7893 0.585786 15.4142C0.210714 15.0391 0 14.5304 0 14V2ZM6 13C6 13.2652 5.89464 13.5196 5.70711 13.7071C5.51957 13.8946 5.26522 14 5 14C4.73478 14 4.48043 13.8946 4.29289 13.7071C4.10536 13.5196 4 13.2652 4 13C4 12.7348 4.10536 12.4804 4.29289 12.2929C4.48043 12.1054 4.73478 12 5 12C5.26522 12 5.51957 12.1054 5.70711 12.2929C5.89464 12.4804 6 12.7348 6 13Z"
    />
  </symbol>
  <symbol id="phone-outlined" viewBox="0 0 10 16" xmlns="http://www.w3.org/2000/svg">
    <path
      fill-rule="evenodd"
      clip-rule="evenodd"
      d="M8 1H2C1.73478 1 1.48043 1.10536 1.29289 1.29289C1.10536 1.48043 1 1.73478 1 2V14C1 14.2652 1.10536 14.5196 1.29289 14.7071C1.48043 14.8946 1.73478 15 2 15H8C8.26522 15 8.51957 14.8946 8.70711 14.7071C8.89464 14.5196 9 14.2652 9 14V2C9 1.73478 8.89464 1.48043 8.70711 1.29289C8.51957 1.10536 8.26522 1 8 1ZM2 0C1.46957 0 0.960859 0.210714 0.585786 0.585786C0.210714 0.960859 0 1.46957 0 2V14C0 14.5304 0.210714 15.0391 0.585786 15.4142C0.960859 15.7893 1.46957 16 2 16H8C8.53043 16 9.03914 15.7893 9.41421 15.4142C9.78929 15.0391 10 14.5304 10 14V2C10 1.46957 9.78929 0.960859 9.41421 0.585786C9.03914 0.210714 8.53043 0 8 0L2 0Z"
    />
    <path
      fill-rule="evenodd"
      clip-rule="evenodd"
      d="M5 14C5.26522 14 5.51957 13.8946 5.70711 13.7071C5.89464 13.5196 6 13.2652 6 13C6 12.7348 5.89464 12.4804 5.70711 12.2929C5.51957 12.1054 5.26522 12 5 12C4.73478 12 4.48043 12.1054 4.29289 12.2929C4.10536 12.4804 4 12.7348 4 13C4 13.2652 4.10536 13.5196 4.29289 13.7071C4.48043 13.8946 4.73478 14 5 14Z"
    />
  </symbol>
  <symbol id="delete" viewBox="0 0 24 24" xmlns="http://www.w3.org/2000/svg">
    <path
      d="M7.25 2.16H7C7.1375 2.16 7.25 2.052 7.25 1.92V2.16H16.75V1.92C16.75 2.052 16.8625 2.16 17 2.16H16.75V4.32H19V1.92C19 0.861 18.1031 0 17 0H7C5.89688 0 5 0.861 5 1.92V4.32H7.25V2.16ZM23 4.32H1C0.446875 4.32 0 4.749 0 5.28V6.24C0 6.372 0.1125 6.48 0.25 6.48H2.1375L2.90938 22.17C2.95938 23.193 3.84063 24 4.90625 24H19.0938C20.1625 24 21.0406 23.196 21.0906 22.17L21.8625 6.48H23.75C23.8875 6.48 24 6.372 24 6.24V5.28C24 4.749 23.5531 4.32 23 4.32ZM18.8531 21.84H5.14688L4.39062 6.48H19.6094L18.8531 21.84Z"
    />
    <path fill-rule="evenodd" clip-rule="evenodd" d="M7.5 19V10H8.5V19H7.5Z" />
    <path fill-rule="evenodd" clip-rule="evenodd" d="M11.5 20V9H12.5V20H11.5Z" />
    <path fill-rule="evenodd" clip-rule="evenodd" d="M15.5 19V10H16.5V19H15.5Z" />
  </symbol>
  <symbol id="clock" viewBox="0 0 16 16" xmlns="http://www.w3.org/2000/svg">
    <path
      d="M7.992 0C3.576 0 0 3.584 0 8C0 12.416 3.576 16 7.992 16C12.416 16 16 12.416 16 8C16 3.584 12.416 0 7.992 0ZM8 15C4.464 15 1 11.536 1 8C1 4.464 4.464 1 8 1C11.536 1 15 4.464 15 8C15 11.536 11.536 15 8 15ZM7.824 4H7.776C7.456 4 7.2 4.256 7.2 4.576V8.352C7.2 8.632 7.344 8.896 7.592 9.04L10.912 11.032C11.184 11.192 11.536 11.112 11.696 10.84C11.7362 10.7752 11.7629 10.703 11.7746 10.6277C11.7863 10.5524 11.7827 10.4755 11.764 10.4016C11.7453 10.3277 11.712 10.2583 11.6659 10.1975C11.6199 10.1368 11.5621 10.0859 11.496 10.048L8.4 8.208V4.576C8.4 4.256 8.144 4 7.824 4Z"
    />
  </symbol>
  <symbol id="geo" viewBox="0 0 12 16" xmlns="http://www.w3.org/2000/svg">
    <path
      fill-rule="evenodd"
      clip-rule="evenodd"
      d="M5.34794 15.6055L5.69863 16L6.04931 15.6493C6.05356 15.6442 6.05966 15.6369 6.06753 15.6276C6.46544 15.1526 11.3973 9.26644 11.3973 5.69863C11.3973 2.54247 8.85479 0 5.69863 0C2.54247 0 0 2.54247 0 5.69863C0 9.33699 5.12877 15.3863 5.34794 15.6055ZM0.876712 5.69863C0.876712 3.02466 3.02466 0.876712 5.69863 0.876712C8.3726 0.876712 10.5205 3.02466 10.5205 5.69863C10.5205 8.50411 6.83836 13.2384 5.69863 14.6411C4.5589 13.2384 0.876712 8.50411 0.876712 5.69863ZM3.50686 5.69854C3.50686 6.92594 4.47124 7.89032 5.69864 7.89032C6.92603 7.89032 7.89041 6.92594 7.89041 5.69854C7.89041 4.47115 6.92603 3.50676 5.69864 3.50676C4.47124 3.50676 3.50686 4.47115 3.50686 5.69854ZM4.38357 5.69854C4.38357 4.95334 4.95343 4.38347 5.69864 4.38347C6.44384 4.38347 7.0137 4.95334 7.0137 5.69854C7.0137 6.44375 6.44384 7.01361 5.69864 7.01361C4.95343 7.01361 4.38357 6.44375 4.38357 5.69854Z"
    />
  </symbol>
  <symbol id="cart" viewBox="0 0 18 18" xmlns="http://www.w3.org/2000/svg">
    <path
      fill-rule="evenodd"
      clip-rule="evenodd"
      d="M0.5 1C0.5 0.723858 0.723858 0.5 1 0.5H2.71429C2.94732 0.5 3.14946 0.660987 3.20161 0.888115L3.65672 2.87037H17C17.1517 2.87037 17.2952 2.93923 17.3901 3.05756C17.485 3.1759 17.521 3.33091 17.4881 3.47898L15.7738 11.1827C15.7229 11.4114 15.52 11.5741 15.2857 11.5741H5.65502L5.96964 12.9444H15.2857C15.5619 12.9444 15.7857 13.1683 15.7857 13.4444C15.7857 13.7206 15.5619 13.9444 15.2857 13.9444H5.57143C5.33839 13.9444 5.13625 13.7835 5.08411 13.5563L4.57452 11.3368C4.54579 11.2903 4.52435 11.2384 4.51194 11.1827L3.65516 7.33247L2.31607 1.5H1C0.723858 1.5 0.5 1.27614 0.5 1ZM5.42542 10.5741H14.8847L16.3765 3.87037H3.90921L4.63055 7.11196L5.42542 10.5741Z"
    />
    <path
      fill-rule="evenodd"
      clip-rule="evenodd"
      d="M14.1429 15.1296C13.8048 15.1296 13.5 15.4191 13.5 15.8148C13.5 16.2105 13.8048 16.5 14.1429 16.5C14.4809 16.5 14.7857 16.2105 14.7857 15.8148C14.7857 15.4191 14.4809 15.1296 14.1429 15.1296ZM12.5 15.8148C12.5 14.9014 13.2185 14.1296 14.1429 14.1296C15.0672 14.1296 15.7857 14.9014 15.7857 15.8148C15.7857 16.7282 15.0672 17.5 14.1429 17.5C13.2185 17.5 12.5 16.7282 12.5 15.8148Z"
    />
    <path
      fill-rule="evenodd"
      clip-rule="evenodd"
      d="M6.71433 15.1296C6.37627 15.1296 6.07147 15.4191 6.07147 15.8148C6.07147 16.2105 6.37627 16.5 6.71433 16.5C7.05239 16.5 7.35719 16.2105 7.35719 15.8148C7.35719 15.4191 7.05239 15.1296 6.71433 15.1296ZM5.07147 15.8148C5.07147 14.9014 5.79002 14.1296 6.71433 14.1296C7.63864 14.1296 8.35719 14.9014 8.35719 15.8148C8.35719 16.7282 7.63864 17.5 6.71433 17.5C5.79002 17.5 5.07147 16.7282 5.07147 15.8148Z"
    />
  </symbol>
  <symbol id="addition" viewBox="0 0 18 6" xmlns="http://www.w3.org/2000/svg">
    <path
      fill-rule="evenodd"
      clip-rule="evenodd"
      d="M15.5001 1.5C14.7281 1.5 14.0715 2.15428 14.0715 3C14.0715 3.84572 14.7281 4.5 15.5001 4.5C16.2721 4.5 16.9287 3.84572 16.9287 3C16.9287 2.15428 16.2721 1.5 15.5001 1.5ZM13.0715 3C13.0715 1.63658 14.1419 0.5 15.5001 0.5C16.8584 0.5 17.9287 1.63658 17.9287 3C17.9287 4.36342 16.8584 5.5 15.5001 5.5C14.1419 5.5 13.0715 4.36342 13.0715 3Z"
    />
    <path
      fill-rule="evenodd"
      clip-rule="evenodd"
      d="M2.92857 1.5C2.15658 1.5 1.5 2.15428 1.5 3C1.5 3.84572 2.15658 4.5 2.92857 4.5C3.70057 4.5 4.35714 3.84572 4.35714 3C4.35714 2.15428 3.70057 1.5 2.92857 1.5ZM0.5 3C0.5 1.63658 1.57032 0.5 2.92857 0.5C4.28682 0.5 5.35714 1.63658 5.35714 3C5.35714 4.36342 4.28682 5.5 2.92857 5.5C1.57032 5.5 0.5 4.36342 0.5 3Z"
    />
    <path
      fill-rule="evenodd"
      clip-rule="evenodd"
      d="M9.21434 1.5C8.44234 1.5 7.78577 2.15428 7.78577 3C7.78577 3.84572 8.44234 4.5 9.21434 4.5C9.98633 4.5 10.6429 3.84572 10.6429 3C10.6429 2.15428 9.98633 1.5 9.21434 1.5ZM6.78577 3C6.78577 1.63658 7.85609 0.5 9.21434 0.5C10.5726 0.5 11.6429 1.63658 11.6429 3C11.6429 4.36342 10.5726 5.5 9.21434 5.5C7.85609 5.5 6.78577 4.36342 6.78577 3Z"
    />
  </symbol>
  <symbol id="mail" viewBox="0 0 21 16" xmlns="http://www.w3.org/2000/svg">
    <path
      d="M19.6364 0H0.727273C0.325 0 0 0.325 0 0.727273V15.2727C0 15.675 0.325 16 0.727273 16H19.6364C20.0386 16 20.3636 15.675 20.3636 15.2727V0.727273C20.3636 0.325 20.0386 0 19.6364 0ZM18.7273 2.51818V14.3636H1.63636V2.51818L1.00909 2.02955L1.90227 0.881818L2.875 1.63864H17.4909L18.4636 0.881818L19.3568 2.02955L18.7273 2.51818ZM17.4909 1.63636L10.1818 7.31818L2.87273 1.63636L1.9 0.879545L1.00682 2.02727L1.63409 2.51591L9.39773 8.55227C9.621 8.72573 9.89568 8.81989 10.1784 8.81989C10.4611 8.81989 10.7358 8.72573 10.9591 8.55227L18.7273 2.51818L19.3545 2.02955L18.4614 0.881818L17.4909 1.63636Z"
    />
  </symbol>
  <symbol id="instagram" viewBox="0 0 36 36" xmlns="http://www.w3.org/2000/svg">
    <path
      d="M17.9952 11.9974C14.69 11.9974 11.9927 14.6948 11.9927 18C11.9927 21.3052 14.69 24.0026 17.9952 24.0026C21.3003 24.0026 23.9976 21.3052 23.9976 18C23.9976 14.6948 21.3003 11.9974 17.9952 11.9974ZM35.998 18C35.998 15.5143 36.0205 13.0512 35.8809 10.57C35.7413 7.68803 35.0839 5.1303 32.9765 3.02288C30.8646 0.910954 28.3114 0.258013 25.4295 0.118418C22.9439 -0.0211759 20.4808 0.0013394 17.9997 0.0013394C15.514 0.0013394 13.0509 -0.0211759 10.5698 0.118418C7.68789 0.258013 5.13021 0.915457 3.02282 3.02288C0.910937 5.13481 0.258008 7.68803 0.118416 10.57C-0.0211755 13.0557 0.00133938 15.5188 0.00133938 18C0.00133938 20.4812 -0.0211755 22.9488 0.118416 25.43C0.258008 28.312 0.91544 30.8697 3.02282 32.9771C5.13471 35.089 7.68789 35.742 10.5698 35.8816C13.0554 36.0212 15.5185 35.9987 17.9997 35.9987C20.4853 35.9987 22.9484 36.0212 25.4295 35.8816C28.3114 35.742 30.8691 35.0845 32.9765 32.9771C35.0884 30.8652 35.7413 28.312 35.8809 25.43C36.025 22.9488 35.998 20.4857 35.998 18ZM17.9952 27.2357C12.8843 27.2357 8.75959 23.111 8.75959 18C8.75959 12.889 12.8843 8.76426 17.9952 8.76426C23.106 8.76426 27.2307 12.889 27.2307 18C27.2307 23.111 23.106 27.2357 17.9952 27.2357ZM27.609 10.543C26.4157 10.543 25.4521 9.57931 25.4521 8.386C25.4521 7.1927 26.4157 6.22905 27.609 6.22905C28.8023 6.22905 29.7659 7.1927 29.7659 8.386C29.7663 8.66936 29.7107 8.95 29.6024 9.21186C29.4942 9.47371 29.3353 9.71163 29.1349 9.912C28.9346 10.1124 28.6967 10.2712 28.4348 10.3795C28.173 10.4878 27.8923 10.5433 27.609 10.543Z"
    />
  </symbol>
  <symbol id="vk" viewBox="0 0 36 36" xmlns="http://www.w3.org/2000/svg">
    <path
      d="M23.5253 0H12.4747C2.39055 0 0 2.39055 0 12.4747V23.5253C0 33.6095 2.39055 36 12.4747 36H23.5253C33.6094 36 36 33.6095 36 23.5253V12.4747C36 2.39055 33.5858 0 23.5253 0ZM29.0623 25.6807H26.449C25.4591 25.6807 25.1542 24.8955 23.3734 23.091C21.8266 21.5914 21.1415 21.3923 20.7601 21.3923C20.2212 21.3923 20.0682 21.5442 20.0682 22.2833V24.6446C20.0682 25.278 19.8691 25.6582 18.1929 25.6582C15.421 25.6582 12.3454 23.982 10.1888 20.8591C6.93653 16.2827 6.04669 12.855 6.04669 12.1462C6.04669 11.7649 6.19856 11.4083 6.93091 11.4083H9.54983C10.2124 11.4083 10.4644 11.7131 10.722 12.4219C12.0169 16.1601 14.1734 19.4349 15.0633 19.4349C15.3918 19.4349 15.5436 19.283 15.5436 18.4449V14.584C15.4435 12.8032 14.5064 12.6502 14.5064 12.018C14.5064 11.7131 14.7584 11.4083 15.1623 11.4083H19.2808C19.8376 11.4083 20.0424 11.7131 20.0424 12.369V17.5776C20.0424 18.1401 20.2944 18.3392 20.4462 18.3392C20.7747 18.3392 21.056 18.1401 21.6646 17.5303C23.5455 15.421 24.8932 12.1687 24.8932 12.1687C25.0687 11.7874 25.3736 11.4308 26.0362 11.4308H28.6551C29.4403 11.4308 29.6158 11.8346 29.4403 12.3971C29.1118 13.9203 25.9068 18.4438 25.9068 18.4438C25.6312 18.9005 25.5255 19.0997 25.9068 19.6093C26.1881 19.9906 27.1027 20.7815 27.7113 21.4902C28.8306 22.7614 29.6912 23.8279 29.9207 24.5659C30.1783 25.2982 29.7981 25.6796 29.059 25.6796L29.0623 25.6807Z"
    />
  </symbol>
  <symbol id="close" viewBox="0 0 20 20" xmlns="http://www.w3.org/2000/svg">
    <path
      d="M12.8285 10.0002L19.4142 16.5859L16.5858 19.4144L10 12.8286L3.41424 19.4144L0.585815 16.5859L7.1716 10.0002L0.585815 3.41436L3.41424 0.585938L10 7.17172L16.5858 0.585938L19.4142 3.41436L12.8285 10.0002Z"
    />
  </symbol>
  <symbol id="delivery-outlined" viewBox="0 0 30 24" xmlns="http://www.w3.org/2000/svg">
    <path
      d="M29.0783 16.9412V12.7059L19.2251 1.41176C19.2251 1.03734 19.0768 0.678254 18.8128 0.413497C18.5488 0.148739 18.1908 0 17.8175 0H3.74147C2.18889 0 0.92627 1.26635 0.92627 2.82353V16.9412C0.92627 17.9944 1.51183 18.9049 2.36624 19.3892C2.53938 21.9572 4.65641 24 7.26047 24C9.73644 24 11.7704 22.152 12.1153 19.7647H16.4817C16.8265 22.152 18.8605 24 21.3365 24C23.8124 24 25.8464 22.152 26.1913 19.7647H26.2631C27.8157 19.7647 29.0783 18.4984 29.0783 16.9412ZM18.7251 4.23529V4.73529H19.2251H22.6505C23.0497 4.73651 23.442 4.84083 23.7896 5.03831C24.1372 5.23583 24.4285 5.51994 24.6351 5.86337C24.6351 5.86351 24.6352 5.86364 24.6353 5.86377L28.4479 12.2356L28.4485 12.2365C28.5335 12.3779 28.5785 12.54 28.5783 12.7053V12.7059V16.9412C28.5783 18.2236 27.5381 19.2647 26.2631 19.2647H26.1913H25.7583L25.6964 19.6932C25.3859 21.8431 23.5554 23.5 21.3365 23.5C19.1176 23.5 17.2871 21.8431 16.9765 19.6932L16.9146 19.2647H16.4817H12.1153H11.6823L11.6204 19.6932C11.3099 21.8431 9.47939 23.5 7.26047 23.5C4.92631 23.5 3.02101 21.6679 2.86511 19.3555L2.847 19.0869L2.61278 18.9542C1.90475 18.5529 1.42627 17.8028 1.42627 16.9412V2.82353C1.42627 1.5411 2.46642 0.5 3.74147 0.5H17.8175C18.0577 0.5 18.2884 0.595701 18.4587 0.766527C18.6291 0.937403 18.7251 1.16947 18.7251 1.41176V4.23529ZM19.2251 6.55882H18.7251V7.05882V11.2941V11.7941H19.2251H25.1848H26.0666L25.6139 11.0374L23.0803 6.80213L22.9347 6.55882H22.6512H19.2251ZM4.64907 19.0588C4.64907 20.5011 5.81885 21.6765 7.26047 21.6765C8.70209 21.6765 9.87187 20.5011 9.87187 19.0588C9.87187 17.6165 8.70209 16.4412 7.26047 16.4412C5.81885 16.4412 4.64907 17.6165 4.64907 19.0588ZM18.7251 19.0588C18.7251 20.5011 19.8949 21.6765 21.3365 21.6765C22.7781 21.6765 23.9479 20.5011 23.9479 19.0588C23.9479 17.6165 22.7781 16.4412 21.3365 16.4412C19.8949 16.4412 18.7251 17.6165 18.7251 19.0588Z"
      stroke="#E5E5E5"
    />
  </symbol>
  <symbol id="percent" viewBox="0 0 22 24" xmlns="http://www.w3.org/2000/svg">
    <path
      fill-rule="evenodd"
      clip-rule="evenodd"
      d="M5.99179 9.4C8.30013 9.4 10.1764 7.52238 10.1764 5.2C10.1764 2.87762 8.30013 1 5.99179 1C3.68345 1 1.80713 2.87762 1.80713 5.2C1.80713 7.52238 3.68345 9.4 5.99179 9.4ZM5.99179 10.4C8.8552 10.4 11.1764 8.07188 11.1764 5.2C11.1764 2.32812 8.8552 0 5.99179 0C3.12838 0 0.807129 2.32812 0.807129 5.2C0.807129 8.07188 3.12838 10.4 5.99179 10.4ZM20.6661 0.413165C20.8798 0.588135 20.9111 0.903161 20.7361 1.1168L2.39041 23.5168C2.21544 23.7304 1.90041 23.7618 1.68677 23.5868C1.47314 23.4118 1.44179 23.0968 1.61676 22.8832L19.9625 0.483178C20.1375 0.269542 20.4525 0.238196 20.6661 0.413165ZM20.9447 18.8C20.9447 21.1224 19.0684 23 16.76 23C14.4517 23 12.5754 21.1224 12.5754 18.8C12.5754 16.4776 14.4517 14.6 16.76 14.6C19.0684 14.6 20.9447 16.4776 20.9447 18.8ZM21.9447 18.8C21.9447 21.6719 19.6234 24 16.76 24C13.8966 24 11.5754 21.6719 11.5754 18.8C11.5754 15.9281 13.8966 13.6 16.76 13.6C19.6234 13.6 21.9447 15.9281 21.9447 18.8Z"
      fill="#E5E5E5"
    />
  </symbol>
  <symbol id="verify" viewBox="0 0 34 25" xmlns="http://www.w3.org/2000/svg">
    <path
      d="M0.661133 11.9412L11.1462 24.1198C11.5452 24.5832 12.2629 24.5832 12.6619 24.1198L32.5667 1"
      stroke="#E5E5E5"
      stroke-linecap="round"
    />
  </symbol>
  <symbol id="brash-outlined" viewBox="0 0 25 24" xmlns="http://www.w3.org/2000/svg">
    <path
      d="M23.5196 11.4225L23.5199 11.4228C23.5903 11.4933 23.6463 11.5771 23.6845 11.6695C23.7227 11.7619 23.7423 11.8609 23.7423 11.961C23.7423 12.0611 23.7227 12.1602 23.6845 12.2525C23.6463 12.3449 23.5903 12.4287 23.5199 12.4992L23.5196 12.4996L17.037 19.0026L17.037 19.0026L16.8635 19.1766L17.2176 19.5297L16.8635 19.1766L16.1483 19.8939L16.1481 19.8942L15.2582 20.7854C14.0265 22.0185 11.8618 22.0172 10.6326 20.7844L10.6323 20.7842L9.74344 19.8939L9.38936 19.5393L9.03554 19.8941L6.4719 22.4654C5.8153 23.1239 4.91128 23.5 3.99705 23.5L3.99506 23.5C3.2468 23.503 2.52141 23.2403 1.9473 22.7583L1.94724 22.7582C1.58027 22.4502 1.28596 22.0642 1.08566 21.628C0.885362 21.1919 0.784103 20.7165 0.789249 20.2361H0.789337L0.789262 20.2268C0.785844 19.7993 0.868118 19.3756 1.03116 18.9807C1.1942 18.5859 1.43466 18.228 1.73819 17.9284L1.74098 17.9256L4.40897 15.2497L4.76095 14.8967L4.40896 14.5436L3.52005 13.6521L3.51974 13.6518C2.90196 13.0333 2.56081 12.2096 2.56081 11.3305L2.56081 11.3292C2.55972 10.898 2.64379 10.4709 2.80814 10.0725C2.97249 9.67414 3.21383 9.31245 3.51817 9.00828L3.51867 9.00779L5.29775 7.2247L5.29784 7.22461L11.7817 0.722798L11.7821 0.722462C11.8524 0.651845 11.9358 0.5959 12.0275 0.557756C12.1192 0.519614 12.2174 0.5 12.3166 0.5C12.4158 0.5 12.514 0.519614 12.6057 0.557756C12.6974 0.5959 12.7808 0.651844 12.8511 0.722462L12.8514 0.722763L19.1819 7.072L20.961 8.85634L23.5196 11.4225ZM15.0779 18.8189L15.4309 18.4658L15.0784 18.1123L10.6326 13.6546L10.6325 13.6546L6.18679 9.19566L5.83271 8.84054L5.47864 9.19566L4.58973 10.0872C4.25839 10.4195 4.07541 10.8631 4.07541 11.333C4.07541 11.8031 4.25848 12.2457 4.59023 12.5768C4.59037 12.577 4.59052 12.5771 4.59066 12.5773L6.36742 14.3606L6.36785 14.361C6.43826 14.4315 6.4942 14.5153 6.53239 14.6077C6.57059 14.7 6.59026 14.7991 6.59026 14.8992C6.59026 14.9993 6.57058 15.0984 6.53239 15.1907C6.4942 15.2831 6.43826 15.3669 6.36785 15.4374L6.36755 15.4377L2.81233 19.0034C2.64956 19.1638 2.5207 19.3553 2.43337 19.5664C2.34686 19.7756 2.30285 20 2.30383 20.2263C2.29804 20.4861 2.3505 20.744 2.45744 20.981C2.56566 21.2207 2.72689 21.4328 2.92902 21.6012L2.93078 21.6026C3.2323 21.8513 3.61226 21.9849 4.00306 21.9792C4.52939 21.9743 5.03235 21.7616 5.40296 21.3876C5.40313 21.3875 5.40329 21.3873 5.40345 21.3871L8.85471 17.9269L8.85507 17.9265C8.92536 17.8559 9.00877 17.8 9.10047 17.7618C9.19217 17.7237 9.29042 17.7041 9.38961 17.7041C9.4888 17.7041 9.58705 17.7237 9.67875 17.7618C9.77045 17.8 9.85386 17.8559 9.92415 17.9265L9.92457 17.927L11.7024 19.7088L11.7023 19.7089L11.7096 19.7159C12.0416 20.0355 12.4844 20.2143 12.9453 20.2143C13.4061 20.2143 13.8489 20.0355 14.1809 19.7159L14.181 19.7159L14.1877 19.7092L15.0779 18.8189Z"
      stroke="#E5E5E5"
    />
  </symbol>
  <symbol id="saw-outlined" viewBox="0 0 25 24" xmlns="http://www.w3.org/2000/svg">
    <path
      d="M24.3828 3.57259V6.34314H21.4713H20.9713V6.84314V9.76471H18.0599H17.5599V10.2647V13.1863H14.6484H14.1484V13.6863V16.6079H11.2656L7.27986 11.0728L22.4724 0.698421L24.3828 3.57259ZM5.50067 14.5328L5.2139 14.1383L4.81242 14.4152L2.99296 15.6698L2.57503 15.9579L2.86952 16.3714L6.84958 21.96L7.14729 22.378L7.55742 22.0695L9.37687 20.7009L9.76999 20.4052L9.48072 20.0073L5.50067 14.5328ZM5.54329 12.3283L10.3669 19.1645L9.8694 21.9589L8.2189 23.2004C7.42693 23.722 6.3648 23.5577 5.72473 22.7398L1.75584 17.1669C1.23138 16.3709 1.39471 15.3019 2.20995 14.6585L5.54329 12.3283Z"
      stroke="#E5E5E5"
    />
  </symbol>
  <symbol id="hammer" viewBox="0 0 25 24" xmlns="http://www.w3.org/2000/svg">
    <path
      d="M2.8925 22.7326L2.13651 22.0542C1.29912 21.3028 1.24616 20.0087 2.01933 19.1913L7.32702 13.5802C7.58959 13.3026 8.0296 13.2968 8.29938 13.5674C8.56423 13.833 8.99446 13.833 9.25931 13.5674L11.4083 11.412C11.8908 10.9281 11.8908 10.145 11.4083 9.66113L10.9194 9.17073C10.7047 8.95539 10.3559 8.95539 10.1412 9.17073C9.92647 9.38607 9.57769 9.38607 9.36298 9.17073L8.48379 8.28894C7.78686 7.58994 7.78686 6.45884 8.48379 5.75984L12.9584 1.27204C13.6582 0.57012 14.7951 0.57012 15.4949 1.27204L16.3667 2.14634C16.5817 2.36205 16.5817 2.71112 16.3667 2.92683C16.1516 3.14254 16.1516 3.49161 16.3667 3.70732L21.0358 8.39024C21.2505 8.60558 21.5992 8.60558 21.814 8.39024C22.0287 8.1749 22.3774 8.1749 22.5921 8.39024L23.3738 9.17419C24.0171 9.81941 24.0171 10.8635 23.3738 11.5087L18.8022 16.0938C18.1024 16.7957 16.9655 16.7957 16.2656 16.0938L15.3939 15.2195C15.1788 15.0038 15.1788 14.6547 15.3939 14.439C15.609 14.2233 15.609 13.8742 15.3939 13.6585L14.9101 13.1733C14.4256 12.6874 13.6386 12.6874 13.1541 13.1733L10.8221 15.5122C10.5532 15.7818 10.5532 16.2182 10.8221 16.4878C11.0909 16.7574 11.0909 17.1938 10.8221 17.4634L5.64458 22.6562C4.89351 23.4095 3.6842 23.4431 2.8925 22.7326Z"
      stroke="#E5E5E5"
    />
  </symbol>
  <symbol id="visa" viewBox="0 0 50 32" xmlns="http://www.w3.org/2000/svg">
    <path
      d="M48.1062 0H1.27115C0.568259 0 0 0.569133 0 1.27115V30.7288C0 31.4309 0.568259 32 1.27115 32H48.1062C48.8091 32 49.3774 31.4309 49.3774 30.7288V1.27115C49.3774 0.569133 48.8091 0 48.1062 0ZM3.82307 9.67003H9.09302C9.80379 9.69713 10.3764 9.92356 10.574 10.6833L11.7201 16.1954C10.5941 13.3121 7.88045 10.9132 3.77936 9.92006L3.82307 9.67003ZM10.1998 22.2417L7.1557 11.8417C9.34393 13.2422 11.2078 15.4645 11.8644 17.0111L12.2193 18.2953L15.5485 9.7898H19.1503L13.7973 22.2391L10.1998 22.2417ZM21.7976 22.2504H18.3985L20.5238 9.77668H23.9246L21.7976 22.2504ZM27.7127 22.4375C26.1889 22.4218 24.721 22.1202 23.9255 21.7713L24.4037 18.9799L24.8417 19.1783C25.9581 19.6443 26.6811 19.8331 28.0423 19.8331C29.0188 19.8331 30.0653 19.4511 30.0749 18.6153C30.081 18.0689 29.6369 17.679 28.3133 17.067C27.0229 16.4708 25.3146 15.4706 25.3356 13.6793C25.354 11.255 27.7214 9.56337 31.0812 9.56337C32.3978 9.56337 33.453 9.83438 34.1262 10.087L33.6672 12.7911L33.3603 12.6468C32.7344 12.3951 31.9292 12.152 30.8163 12.1695C29.4857 12.1695 28.8685 12.7238 28.8685 13.2422C28.8615 13.8262 29.5888 14.2109 30.7778 14.7896C32.7387 15.6796 33.6453 16.7593 33.6331 18.1782C33.6069 20.7659 31.2875 22.4375 27.7127 22.4375ZM42.4437 22.2557C42.4437 22.2557 42.1334 20.8219 42.0302 20.3865C41.5354 20.3865 38.0664 20.3813 37.6765 20.3813C37.5445 20.7179 36.9622 22.2557 36.9622 22.2557H33.3927L38.4397 10.8249C38.7981 10.0127 39.4057 9.7898 40.2205 9.7898H42.8468L45.598 22.2548L42.4437 22.2557Z"
    />
    <path
      d="M40.6895 14.2292L40.4605 13.1539C40.2874 13.6233 39.9893 14.3778 40.0085 14.3446C40.0085 14.3446 38.9341 17.1133 38.6543 17.8311H41.4772C41.3409 17.206 40.6895 14.2292 40.6895 14.2292Z"
    />
  </symbol>
  <symbol id="mir" viewBox="0 0 111 32" xmlns="http://www.w3.org/2000/svg">
    <path
      fill-rule="evenodd"
      clip-rule="evenodd"
      d="M99.4588 0H78.2017C79.3445 7.08571 86.2017 13.7143 93.7445 13.7143H110.659C110.887 13.0286 110.887 12.1143 110.887 11.4286C110.887 5.02857 105.859 0 99.4588 0Z"
    />
    <path
      fill-rule="evenodd"
      clip-rule="evenodd"
      d="M80.0298 14.8571V32H90.3155V22.8571H99.4584C104.487 22.8571 108.83 19.4285 110.201 14.8571H80.0298Z"
    />
    <path
      fill-rule="evenodd"
      clip-rule="evenodd"
      d="M43.458 0V32H52.6009C52.6009 32 54.8866 32 56.0294 29.7143C62.2009 17.3714 64.0294 13.7143 64.0294 13.7143H65.1723V32H75.458V0H66.3151C66.3151 0 64.0294 0.228571 62.8866 2.28571C57.6294 12.8 54.8866 18.2857 54.8866 18.2857H53.7437V0H43.458Z"
    />
    <path
      fill-rule="evenodd"
      clip-rule="evenodd"
      d="M0.0297852 32V0H10.3155C10.3155 0 13.2869 0 14.8869 4.57143C19.0012 16.6857 19.4584 18.2857 19.4584 18.2857C19.4584 18.2857 20.3726 15.3143 24.0298 4.57143C25.6298 0 28.6012 0 28.6012 0H38.8869V32H28.6012V14.8571H27.4584L21.7441 32H17.1726L11.4584 14.8571H10.3155V32H0.0297852Z"
    />
  </symbol>
  <symbol id="master" viewBox="0 0 62 36" xmlns="http://www.w3.org/2000/svg">
    <path
      d="M61.0296 18C61.0296 8.11956 53.0079 0 43.0296 0C38.7253 0 34.8122 1.46739 31.6818 4.01087C34.0296 6.26087 35.8883 9.09783 36.7688 12.3261H35.3014C34.3231 9.48913 32.7579 6.94565 30.6057 4.8913C28.4535 6.94565 26.8883 9.48913 25.9101 12.3261H24.4427C25.4209 9.09783 27.1818 6.26087 29.5296 4.01087C26.3992 1.46739 22.584 0 18.2796 0C8.39918 0 0.377441 8.11956 0.377441 18C0.377441 27.8804 8.39918 36 18.3774 36C22.6818 36 26.5948 34.4348 29.6274 31.9891C27.2796 29.7391 25.5188 26.9022 24.5405 23.6739H26.0079C26.9861 26.5109 28.5514 29.0543 30.7035 31.1087C32.8557 29.0543 34.5188 26.5109 35.3992 23.6739H36.8666C35.8883 26.9022 34.1274 29.7391 31.7796 31.9891C34.9101 34.5326 38.8231 36 43.1275 36C53.0079 36 61.0296 27.8804 61.0296 18Z"
      fill="#E5E5E5"
    />
    <path
      d="M47.8232 22.2066L49.095 15.5544H50.6602L50.8558 16.2392C51.1493 15.9457 51.6385 15.5544 52.6167 15.5544L52.1276 17.3153C51.6385 17.3153 50.8559 17.2174 50.2689 19.1739L49.6819 22.2066H47.8232Z"
      fill="#212429"
    />
    <path
      d="M23.8558 13.8913H25.6166L25.2253 15.6522H26.2036L25.9101 17.0217H25.0297L24.5405 19.663C24.4427 20.1522 24.5405 20.6413 25.5188 20.4456L25.3231 21.913C24.9318 22.2065 24.4427 22.2065 23.9536 22.2065C23.5623 22.2065 22.1927 21.913 22.4862 20.1522L23.8558 13.8913Z"
      fill="#212429"
    />
    <path
      d="M31.6822 19.2718C31.8779 18.1957 32.367 15.5544 29.2366 15.5544C26.3018 15.5544 25.9105 18.4892 25.9105 18.8805C25.8127 19.2718 25.8127 22.2066 28.9431 22.2066C29.7257 22.2066 30.8018 22.1087 31.2909 21.9131L31.5844 20.5435C31.2909 20.6413 30.3127 20.7392 29.53 20.7392C28.8453 20.7392 27.6714 20.7392 27.867 19.2718H31.6822Z"
      fill="#212429"
    />
    <path
      d="M22.0954 17.1196L22.4867 15.75C21.6063 15.4565 20.9215 15.4565 20.7258 15.4565C20.4324 15.4565 18.2802 15.4565 17.9867 17.0218C17.6932 18.2935 18.1824 18.7826 18.5737 18.9783C19.2585 19.2718 19.6498 19.5652 20.0411 19.7609C20.5302 19.9565 20.4324 20.7391 19.8454 20.7391C19.5519 20.7391 18.378 20.837 17.4976 20.5435L17.2041 21.9131C18.0845 22.1087 18.6715 22.1087 19.3563 22.1087C19.8454 22.1087 21.9976 22.2065 22.2911 20.25C22.4867 19.2718 21.9976 18.8805 21.7041 18.587C21.3128 18.3913 20.8237 18 20.4324 17.9022C20.0411 17.7065 19.7476 17.1196 20.4324 16.9239C20.7258 17.0218 21.6063 17.0218 22.0954 17.1196Z"
      fill="#212429"
    />
    <path
      d="M10.3559 22.2066L11.9211 14.1848H8.88853L6.73635 19.0761L6.34505 14.1848H3.50809L1.94287 22.2066H3.70374L4.87765 16.4348L5.36679 22.2066H7.02983L9.57331 16.5326L8.49722 22.2066H10.3559Z"
      fill="#212429"
    />
    <path
      d="M12.4104 15.75L12.1169 17.2174C12.606 17.2174 13.7799 17.0218 14.3669 17.0218C14.9538 17.0218 15.7365 16.9239 15.443 17.9022C14.9538 17.9022 11.7256 17.4131 11.2365 20.25C11.0408 21.6196 12.2147 22.3044 13.0952 22.3044C13.9756 22.3044 14.2691 22.1087 14.5625 21.9131L14.7582 22.3044H16.4212L17.106 18.6848C17.3017 17.8044 17.5951 15.6522 14.5625 15.6522C14.1712 15.5544 13.5843 15.5544 12.4104 15.75Z"
      fill="#212429"
    />
    <path
      d="M41.6604 16.0435C41.1713 15.75 40.8778 15.75 40.2909 15.75C39.7039 15.75 38.3343 16.337 38.1387 17.9022C37.8452 19.8587 39.117 20.7392 40.9756 20.1522L41.4648 21.8152C40.8778 22.1087 40.2909 22.2065 39.3126 22.2065C37.4539 22.2065 35.3996 20.5435 36.28 17.1196C36.9648 14.6739 39.117 13.6957 40.3887 13.7935C41.8561 13.8913 42.443 14.3805 42.8343 14.8696L41.6604 16.0435Z"
      fill="#212429"
    />
    <path
      d="M57.0193 16.337C56.628 16.0435 56.4324 15.5544 55.6497 15.5544C54.6715 15.5544 53.1063 15.3587 52.2258 18.3913C51.6389 20.4457 52.8128 22.2066 54.0845 22.2066C54.6715 22.2066 55.2584 21.9131 55.6497 21.7174L55.8454 22.2066H57.8019L59.3671 13.7935H57.5084L57.0193 16.337Z"
      fill="#212429"
    />
    <path
      d="M42.9323 15.75L42.6389 17.2174C43.128 17.2174 44.3019 17.0218 44.8889 17.0218C45.4758 17.0218 46.1606 16.9239 45.9649 17.9022C45.4758 17.9022 42.2476 17.4131 41.7584 20.25C41.5628 21.6196 42.7367 22.3044 43.6171 22.3044C44.4976 22.3044 44.791 22.1087 45.0845 21.9131L45.2802 22.3044H46.9432L47.628 18.6848C47.8236 17.8044 48.1171 15.6522 45.0845 15.6522C44.791 15.5544 44.1063 15.5544 42.9323 15.75Z"
      fill="#212429"
    />
    <path
      d="M27.8662 18H30.1162C30.214 17.3152 30.0184 16.8261 29.3336 16.8261C28.551 16.8261 28.0619 17.2174 27.8662 18Z"
      fill="#E5E5E5"
    />
    <path
      d="M15.149 19.2718C14.8556 19.2718 14.1708 19.0761 13.5838 19.4674C12.9969 19.8587 12.8012 20.5435 13.486 20.7391C14.073 20.9348 14.8556 20.5435 15.0512 19.9565L15.149 19.2718Z"
      fill="#E5E5E5"
    />
    <path
      d="M56.4317 19.0761C56.6274 18.4892 56.5296 17.7066 56.3339 17.4131C55.747 16.6305 54.4752 17.2174 54.0839 18.6848C53.7904 19.6631 54.3774 20.3479 54.9643 20.3479C55.6491 20.3479 56.0404 19.8587 56.4317 19.0761Z"
      fill="#E5E5E5"
    />
    <path
      d="M45.7687 19.2718C45.4752 19.2718 44.7904 19.0761 44.2035 19.4674C43.6165 19.8587 43.4209 20.5435 44.1056 20.7391C44.6926 20.9348 45.573 20.5435 45.6708 19.9565L45.7687 19.2718Z"
      fill="#E5E5E5"
    />
    <path
      d="M31.6816 22.2065L32.9534 15.6522H34.5186L34.7142 16.3369C35.0077 16.0435 35.4969 15.6522 36.4751 15.6522L35.986 17.413C35.5947 17.413 34.7143 17.3152 34.1273 19.2717L33.5403 22.3043H31.6816"
      fill="#212429"
    />
    <path
      d="M18.3772 0C10.4533 0 3.7033 5.18478 1.35547 12.3261H24.6381C25.6163 9.09783 27.3772 6.26087 29.725 4.01087C26.4968 1.56522 22.5837 0 18.3772 0Z"
      fill="#E5E5E5"
    />
    <path
      d="M30.7035 4.98914C28.5513 7.04348 26.9861 9.48914 26.0078 12.4239H35.3991C34.4209 9.58696 32.8556 7.04348 30.7035 4.98914Z"
      fill="#E5E5E5"
    />
    <path
      d="M43.0295 0C38.7251 0 34.8121 1.46739 31.6816 4.01087C34.0295 6.26087 35.7903 9.09783 36.7686 12.3261H60.0512C57.8012 5.18478 51.0512 0 43.0295 0Z"
      fill="#E5E5E5"
    />
  </symbol>
</svg>
